<svg xmlns="http://www.w3.org/2000/svg" width="1440" height="900"><path d="M720,397L1010,216L728,154Z" fill="#fbfbfc" stroke="#fbfbfc" stroke-width="1.51"/><path d="M720,397L1002,475L1010,216Z" fill="#fbfbfc" stroke="#fbfbfc" stroke-width="1.51"/><path d="M1010,216L933,33L728,154Z" fill="#f9f9fa" stroke="#f9f9fa" stroke-width="1.51"/><path d="M1010,216L1196,199L933,33Z" fill="#f6f7f9" stroke="#f6f7f9" stroke-width="1.51"/><path d="M1162,461L1196,199L1010,216Z" fill="#f7f7f9" stroke="#f7f7f9" stroke-width="1.51"/><path d="M1002,475L1162,461L1010,216Z" fill="#f9fafa" stroke="#f9fafa" stroke-width="1.51"/><path d="M933,33L749,-82L728,154Z" fill="#f9f9fa" stroke="#f9f9fa" stroke-width="1.51"/><path d="M1002,475L1015,660L1162,461Z" fill="#f8f9fa" stroke="#f8f9fa" stroke-width="1.51"/><path d="M790,734L1015,660L1002,475Z" fill="#f9f9fa" stroke="#f9f9fa" stroke-width="1.51"/><path d="M404,-51L419,219L728,154Z" fill="#f9f9fa" stroke="#f9f9fa" stroke-width="1.51"/><path d="M728,154L419,219L720,397Z" fill="#fbfcfd" stroke="#fbfcfd" stroke-width="1.51"/><path d="M720,397L790,734L1002,475Z" fill="#fcfcfc" stroke="#fcfcfc" stroke-width="1.51"/><path d="M459,630L790,734L720,397Z" fill="#fcfcfc" stroke="#fcfcfc" stroke-width="1.51"/><path d="M419,219L427,464L720,397Z" fill="#fcfcfc" stroke="#fcfcfc" stroke-width="1.51"/><path d="M1196,199L1217,-80L933,33Z" fill="#f4f5f7" stroke="#f4f5f7" stroke-width="1.51"/><path d="M959,-346L729,-301L749,-82Z" fill="#f5f6f8" stroke="#f5f6f8" stroke-width="1.51"/><path d="M427,464L459,630L720,397Z" fill="#fdfcfd" stroke="#fdfcfd" stroke-width="1.51"/><path d="M419,219L157,413L427,464Z" fill="#fafafc" stroke="#fafafc" stroke-width="1.51"/><path d="M749,-82L404,-51L728,154Z" fill="#f9f9fa" stroke="#f9f9fa" stroke-width="1.51"/><path d="M404,-51L296,138L419,219Z" fill="#f8f8f9" stroke="#f8f8f9" stroke-width="1.51"/><path d="M427,464L228,658L459,630Z" fill="#f9f9fa" stroke="#f9f9fa" stroke-width="1.51"/><path d="M749,-82L443,-320L404,-51Z" fill="#f6f7f8" stroke="#f6f7f8" stroke-width="1.51"/><path d="M959,-346L749,-82L933,33Z" fill="#f5f6f8" stroke="#f5f6f8" stroke-width="1.51"/><path d="M1515,405L1196,199L1162,461Z" fill="#f5f6f7" stroke="#f5f6f7" stroke-width="1.51"/><path d="M1515,405L1426,135L1196,199Z" fill="#f3f3f5" stroke="#f3f3f5" stroke-width="1.51"/><path d="M1196,199L1418,-8L1217,-80Z" fill="#f2f3f5" stroke="#f2f3f5" stroke-width="1.51"/><path d="M1015,660L1217,763L1162,461Z" fill="#f5f6f8" stroke="#f5f6f8" stroke-width="1.51"/><path d="M933,967L1217,763L1015,660Z" fill="#f3f4f6" stroke="#f3f4f6" stroke-width="1.51"/><path d="M1455,-308L1178,-255L1217,-80Z" fill="#f0f0f2" stroke="#f0f0f2" stroke-width="1.51"/><path d="M1217,-80L1178,-255L933,33Z" fill="#f3f3f5" stroke="#f3f3f5" stroke-width="1.51"/><path d="M1178,-255L959,-346L933,33Z" fill="#f3f4f6" stroke="#f3f4f6" stroke-width="1.51"/><path d="M1426,135L1418,-8L1196,199Z" fill="#f2f2f5" stroke="#f2f2f5" stroke-width="1.51"/><path d="M404,-51L285,-35L296,138Z" fill="#f6f6f8" stroke="#f6f6f8" stroke-width="1.51"/><path d="M443,-320L285,-35L404,-51Z" fill="#f5f5f7" stroke="#f5f5f7" stroke-width="1.51"/><path d="M790,734L933,967L1015,660Z" fill="#f5f6f8" stroke="#f5f6f8" stroke-width="1.51"/><path d="M459,630L716,926L790,734Z" fill="#f8f9fa" stroke="#f8f9fa" stroke-width="1.51"/><path d="M1528,673L1515,405L1162,461Z" fill="#f4f4f6" stroke="#f4f4f6" stroke-width="1.51"/><path d="M1426,135L1635,195L1418,-8Z" fill="#f0f0f3" stroke="#f0f0f3" stroke-width="1.51"/><path d="M716,926L933,967L790,734Z" fill="#f5f6f8" stroke="#f5f6f8" stroke-width="1.51"/><path d="M459,630L474,1002L716,926Z" fill="#f6f6f8" stroke="#f6f6f8" stroke-width="1.51"/><path d="M296,138L157,413L419,219Z" fill="#f8f9fa" stroke="#f8f9fa" stroke-width="1.51"/><path d="M-6,398L157,413L-21,176Z" fill="#f7f7f9" stroke="#f7f7f9" stroke-width="1.51"/><path d="M729,-301L443,-320L749,-82Z" fill="#f6f7f8" stroke="#f6f7f8" stroke-width="1.51"/><path d="M959,-346L443,-320L729,-301Z" fill="#f6f6f8" stroke="#f6f6f8" stroke-width="1.51"/><path d="M157,413L228,658L427,464Z" fill="#fafafb" stroke="#fafafb" stroke-width="1.51"/><path d="M933,967L1268,899L1217,763Z" fill="#f1f2f4" stroke="#f1f2f4" stroke-width="1.51"/><path d="M1217,763L1528,673L1162,461Z" fill="#f3f4f6" stroke="#f3f4f6" stroke-width="1.51"/><path d="M1268,899L1528,673L1217,763Z" fill="#f0f0f3" stroke="#f0f0f3" stroke-width="1.51"/><path d="M1763,429L1635,195L1515,405Z" fill="#f0f1f3" stroke="#f0f1f3" stroke-width="1.51"/><path d="M1515,405L1635,195L1426,135Z" fill="#f1f1f4" stroke="#f1f1f4" stroke-width="1.51"/><path d="M1418,-8L1455,-308L1217,-80Z" fill="#eeeff2" stroke="#eeeff2" stroke-width="1.51"/><path d="M716,926L791,1143L933,967Z" fill="#f3f3f6" stroke="#f3f3f6" stroke-width="1.51"/><path d="M272,931L474,1002L459,630Z" fill="#f4f5f7" stroke="#f4f5f7" stroke-width="1.51"/><path d="M1702,-77L1455,-308L1418,-8Z" fill="#ecedf1" stroke="#ecedf1" stroke-width="1.51"/><path d="M1178,-255L1455,-308L959,-346Z" fill="#eff0f3" stroke="#eff0f3" stroke-width="1.51"/><path d="M228,658L272,931L459,630Z" fill="#f6f6f8" stroke="#f6f6f8" stroke-width="1.51"/><path d="M157,413L-50,635L228,658Z" fill="#f7f8f9" stroke="#f7f8f9" stroke-width="1.51"/><path d="M-21,176L157,413L296,138Z" fill="#f7f7f9" stroke="#f7f7f9" stroke-width="1.51"/><path d="M-21,176L296,138L-30,-36Z" fill="#f5f5f7" stroke="#f5f5f7" stroke-width="1.51"/><path d="M474,1002L791,1143L716,926Z" fill="#f4f4f6" stroke="#f4f4f6" stroke-width="1.51"/><path d="M933,967L1039,1135L1268,899Z" fill="#eff0f3" stroke="#eff0f3" stroke-width="1.51"/><path d="M474,1002L422,1190L791,1143Z" fill="#f1f2f4" stroke="#f1f2f4" stroke-width="1.51"/><path d="M-10,928L272,931L228,658Z" fill="#f2f3f5" stroke="#f2f3f5" stroke-width="1.51"/><path d="M443,-320L153,-246L285,-35Z" fill="#f3f4f6" stroke="#f3f4f6" stroke-width="1.51"/><path d="M-30,-36L296,138L285,-35Z" fill="#f5f6f8" stroke="#f5f6f8" stroke-width="1.51"/><path d="M1268,899L1494,963L1528,673Z" fill="#edeef1" stroke="#edeef1" stroke-width="1.51"/><path d="M791,1143L1039,1135L933,967Z" fill="#f0f1f3" stroke="#f0f1f3" stroke-width="1.51"/><path d="M1635,195L1702,-77L1418,-8Z" fill="#edeef1" stroke="#edeef1" stroke-width="1.51"/><path d="M1763,429L1702,-77L1635,195Z" fill="#eeeef1" stroke="#eeeef1" stroke-width="1.51"/><path d="M1528,673L1763,429L1515,405Z" fill="#f1f2f4" stroke="#f1f2f4" stroke-width="1.51"/><path d="M153,-246L-30,-36L285,-35Z" fill="#f3f4f6" stroke="#f3f4f6" stroke-width="1.51"/><path d="M1418,1179L1494,963L1268,899Z" fill="#ebecef" stroke="#ebecef" stroke-width="1.51"/><path d="M1528,673L1709,739L1763,429Z" fill="#eeeff2" stroke="#eeeff2" stroke-width="1.51"/><path d="M-6,398L-50,635L157,413Z" fill="#f8f8fa" stroke="#f8f8fa" stroke-width="1.51"/><path d="M-192,466L-50,635L-6,398Z" fill="#f6f7f9" stroke="#f6f7f9" stroke-width="1.51"/><path d="M-192,466L-6,398L-21,176Z" fill="#f7f7f8" stroke="#f7f7f8" stroke-width="1.51"/><path d="M1494,963L1709,739L1528,673Z" fill="#ecedf0" stroke="#ecedf0" stroke-width="1.51"/><path d="M791,1143L1265,1238L1039,1135Z" fill="#edeef1" stroke="#edeef1" stroke-width="1.51"/><path d="M272,931L422,1190L474,1002Z" fill="#f1f1f4" stroke="#f1f1f4" stroke-width="1.51"/><path d="M205,1190L422,1190L272,931Z" fill="#eff0f2" stroke="#eff0f2" stroke-width="1.51"/><path d="M1494,963L1649,992L1709,739Z" fill="#e9ebee" stroke="#e9ebee" stroke-width="1.51"/><path d="M1039,1135L1265,1238L1268,899Z" fill="#ecedf0" stroke="#ecedf0" stroke-width="1.51"/><path d="M422,1190L1265,1238L791,1143Z" fill="#eff0f3" stroke="#eff0f3" stroke-width="1.51"/><path d="M1702,-77L1729,-299L1455,-308Z" fill="#eaebee" stroke="#eaebee" stroke-width="1.51"/><path d="M1455,-308L1729,-299L959,-346Z" fill="#ededf1" stroke="#ededf1" stroke-width="1.51"/><path d="M1763,429L1729,-299L1702,-77Z" fill="#ebecef" stroke="#ebecef" stroke-width="1.51"/><path d="M-309,138L-192,466L-21,176Z" fill="#f5f5f7" stroke="#f5f5f7" stroke-width="1.51"/><path d="M-30,-36L-232,18L-21,176Z" fill="#f3f3f6" stroke="#f3f3f6" stroke-width="1.51"/><path d="M153,-246L-37,-308L-30,-36Z" fill="#f1f2f5" stroke="#f1f2f5" stroke-width="1.51"/><path d="M443,-320L-37,-308L153,-246Z" fill="#f1f2f5" stroke="#f1f2f5" stroke-width="1.51"/><path d="M-252,-318L-37,-308L443,-320Z" fill="#f0f0f4" stroke="#f0f0f4" stroke-width="1.51"/><path d="M1265,1238L1418,1179L1268,899Z" fill="#eaebee" stroke="#eaebee" stroke-width="1.51"/><path d="M1418,1179L1649,992L1494,963Z" fill="#e8e9ed" stroke="#e8e9ed" stroke-width="1.51"/><path d="M-199,670L-10,928L-50,635Z" fill="#f2f3f5" stroke="#f2f3f5" stroke-width="1.51"/><path d="M-50,635L-10,928L228,658Z" fill="#f3f4f6" stroke="#f3f4f6" stroke-width="1.51"/><path d="M-252,-318L-232,18L-30,-36Z" fill="#f0f1f4" stroke="#f0f1f4" stroke-width="1.51"/><path d="M422,1190L205,1190L1265,1238Z" fill="#f0f1f3" stroke="#f0f1f3" stroke-width="1.51"/><path d="M20,1154L205,1190L272,931Z" fill="#eeeff1" stroke="#eeeff1" stroke-width="1.51"/><path d="M-309,138L-199,670L-192,466Z" fill="#f6f6f8" stroke="#f6f6f8" stroke-width="1.51"/><path d="M-192,466L-199,670L-50,635Z" fill="#f4f5f7" stroke="#f4f5f7" stroke-width="1.51"/><path d="M-232,18L-309,138L-21,176Z" fill="#f3f3f6" stroke="#f3f3f6" stroke-width="1.51"/><path d="M-252,-318L-309,138L-232,18Z" fill="#f0f1f4" stroke="#f0f1f4" stroke-width="1.51"/><path d="M-230,1012L20,1154L-10,928Z" fill="#edeef1" stroke="#edeef1" stroke-width="1.51"/><path d="M-10,928L20,1154L272,931Z" fill="#eff0f2" stroke="#eff0f2" stroke-width="1.51"/><path d="M-37,-308L-252,-318L-30,-36Z" fill="#eff0f3" stroke="#eff0f3" stroke-width="1.51"/><path d="M959,-346L-252,-318L443,-320Z" fill="#f3f3f5" stroke="#f3f3f5" stroke-width="1.51"/><path d="M1649,992L1763,1189L1709,739Z" fill="#e6e8ec" stroke="#e6e8ec" stroke-width="1.51"/><path d="M1709,739L1763,1189L1763,429Z" fill="#e9ebee" stroke="#e9ebee" stroke-width="1.51"/><path d="M1418,1179L1763,1189L1649,992Z" fill="#e6e7eb" stroke="#e6e7eb" stroke-width="1.51"/><path d="M1265,1238L1763,1189L1418,1179Z" fill="#e6e7eb" stroke="#e6e7eb" stroke-width="1.51"/><path d="M-199,670L-230,1012L-10,928Z" fill="#eff0f3" stroke="#eff0f3" stroke-width="1.51"/><path d="M-309,138L-230,1012L-199,670Z" fill="#f3f3f6" stroke="#f3f3f6" stroke-width="1.51"/><path d="M-230,1012L-248,1140L20,1154Z" fill="#ebecef" stroke="#ebecef" stroke-width="1.51"/><path d="M20,1154L-248,1140L205,1190Z" fill="#ebecef" stroke="#ebecef" stroke-width="1.51"/><path d="M-309,138L-248,1140L-230,1012Z" fill="#f0f1f4" stroke="#f0f1f4" stroke-width="1.51"/></svg>