<svg xmlns="http://www.w3.org/2000/svg" width="1920" height="1080"><path d="M-158,-263L314,-224L609,-222Z" fill="#5e23e8" stroke="#5e23e8" stroke-width="1.51"/><path d="M453,1335L173,1345L859,1333Z" fill="#7e1fe0" stroke="#7e1fe0" stroke-width="1.51"/><path d="M-158,-263L609,-222L1047,-250Z" fill="#5a24df" stroke="#5a24df" stroke-width="1.51"/><path d="M1086,1324L859,1333L1748,1331Z" fill="#811fd7" stroke="#811fd7" stroke-width="1.51"/><path d="M1579,1289L1378,1277L1748,1331Z" fill="#8d1ae3" stroke="#8d1ae3" stroke-width="1.51"/><path d="M1378,1277L1086,1324L1748,1331Z" fill="#871ddd" stroke="#871ddd" stroke-width="1.51"/><path d="M-158,-263L1047,-250L1781,-262Z" fill="#5625d0" stroke="#5625d0" stroke-width="1.51"/><path d="M1349,-224L1606,-215L1781,-262Z" fill="#7020e4" stroke="#7020e4" stroke-width="1.51"/><path d="M1047,-250L1349,-224L1781,-262Z" fill="#6822dd" stroke="#6822dd" stroke-width="1.51"/><path d="M2084,51L1985,90L2089,207Z" fill="#7d1ee3" stroke="#7d1ee3" stroke-width="1.51"/><path d="M2102,-159L1975,-26L2126,-40Z" fill="#821bee" stroke="#821bee" stroke-width="1.51"/><path d="M2084,51L2089,207L2126,-40Z" fill="#801de7" stroke="#801de7" stroke-width="1.51"/><path d="M2035,935L1966,1019L2128,1163Z" fill="#9119e6" stroke="#9119e6" stroke-width="1.51"/><path d="M1968,1179L2123,1266L2128,1163Z" fill="#9c10f2" stroke="#9c10f2" stroke-width="1.51"/><path d="M1966,1019L1968,1179L2128,1163Z" fill="#9516eb" stroke="#9516eb" stroke-width="1.51"/><path d="M2077,864L2035,935L2128,1163Z" fill="#8f19e5" stroke="#8f19e5" stroke-width="1.51"/><path d="M2060,669L2077,864L2130,410Z" fill="#7b21d2" stroke="#7b21d2" stroke-width="1.51"/><path d="M2060,575L2060,669L2130,410Z" fill="#7522cc" stroke="#7522cc" stroke-width="1.51"/><path d="M1891,410L1945,505L2130,410Z" fill="#7322cd" stroke="#7322cd" stroke-width="1.51"/><path d="M2089,207L1944,239L2130,410Z" fill="#7920d9" stroke="#7920d9" stroke-width="1.51"/><path d="M1944,239L1891,410L2130,410Z" fill="#7522d3" stroke="#7522d3" stroke-width="1.51"/><path d="M1945,505L2060,575L2130,410Z" fill="#7422cd" stroke="#7422cd" stroke-width="1.51"/><path d="M2126,-40L2089,207L2130,410Z" fill="#7e1ee1" stroke="#7e1ee1" stroke-width="1.51"/><path d="M2077,864L2128,1163L2130,410Z" fill="#861ddc" stroke="#861ddc" stroke-width="1.51"/><path d="M1975,-26L2084,51L2126,-40Z" fill="#801cea" stroke="#801cea" stroke-width="1.51"/><path d="M2060,669L1914,714L2077,864Z" fill="#7e20d5" stroke="#7e20d5" stroke-width="1.51"/><path d="M1968,1179L1967,1334L2123,1266Z" fill="#9d10f2" stroke="#9d10f2" stroke-width="1.51"/><path d="M1914,714L1946,873L2077,864Z" fill="#811fd7" stroke="#811fd7" stroke-width="1.51"/><path d="M1892,-251L1975,-26L2102,-159Z" fill="#811bf0" stroke="#811bf0" stroke-width="1.51"/><path d="M1985,90L1944,239L2089,207Z" fill="#7a20dd" stroke="#7a20dd" stroke-width="1.51"/><path d="M1975,-26L1985,90L2084,51Z" fill="#7d1ee6" stroke="#7d1ee6" stroke-width="1.51"/><path d="M1946,873L2035,935L2077,864Z" fill="#871ddd" stroke="#871ddd" stroke-width="1.51"/><path d="M1945,505L1914,714L2060,575Z" fill="#7323ca" stroke="#7323ca" stroke-width="1.51"/><path d="M2060,575L1914,714L2060,669Z" fill="#7822cf" stroke="#7822cf" stroke-width="1.51"/><path d="M1892,-251L1804,-84L1975,-26Z" fill="#7b1dea" stroke="#7b1dea" stroke-width="1.51"/><path d="M1946,873L1966,1019L2035,935Z" fill="#881cde" stroke="#881cde" stroke-width="1.51"/><path d="M1781,1184L1967,1334L1968,1179Z" fill="#9715ec" stroke="#9715ec" stroke-width="1.51"/><path d="M1966,1019L1781,1184L1968,1179Z" fill="#9018e6" stroke="#9018e6" stroke-width="1.51"/><path d="M1803,240L1944,239L1985,90Z" fill="#7521d9" stroke="#7521d9" stroke-width="1.51"/><path d="M1771,68L1803,240L1985,90Z" fill="#7421da" stroke="#7421da" stroke-width="1.51"/><path d="M1975,-26L1771,68L1985,90Z" fill="#7820e1" stroke="#7820e1" stroke-width="1.51"/><path d="M1793,335L1891,410L1944,239Z" fill="#7023d0" stroke="#7023d0" stroke-width="1.51"/><path d="M1766,709L1914,714L1945,505Z" fill="#7223c9" stroke="#7223c9" stroke-width="1.51"/><path d="M1750,487L1766,709L1945,505Z" fill="#6b24c3" stroke="#6b24c3" stroke-width="1.51"/><path d="M1946,873L1742,966L1966,1019Z" fill="#851edb" stroke="#851edb" stroke-width="1.51"/><path d="M1781,1184L1748,1331L1967,1334Z" fill="#9715ec" stroke="#9715ec" stroke-width="1.51"/><path d="M1804,-84L1771,68L1975,-26Z" fill="#7720e3" stroke="#7720e3" stroke-width="1.51"/><path d="M1742,966L1781,1184L1966,1019Z" fill="#891cdf" stroke="#891cdf" stroke-width="1.51"/><path d="M1766,709L1736,851L1914,714Z" fill="#7622cd" stroke="#7622cd" stroke-width="1.51"/><path d="M1803,240L1793,335L1944,239Z" fill="#7122d1" stroke="#7122d1" stroke-width="1.51"/><path d="M1914,714L1736,851L1946,873Z" fill="#7c21d2" stroke="#7c21d2" stroke-width="1.51"/><path d="M1736,851L1742,966L1946,873Z" fill="#7e20d5" stroke="#7e20d5" stroke-width="1.51"/><path d="M1891,410L1750,487L1945,505Z" fill="#6d24c7" stroke="#6d24c7" stroke-width="1.51"/><path d="M1781,-262L1804,-84L1892,-251Z" fill="#7a1eec" stroke="#7a1eec" stroke-width="1.51"/><path d="M1793,335L1750,487L1891,410Z" fill="#6c24c8" stroke="#6c24c8" stroke-width="1.51"/><path d="M1750,487L1672,552L1766,709Z" fill="#6824c0" stroke="#6824c0" stroke-width="1.51"/><path d="M1672,552L1671,656L1766,709Z" fill="#6b24c2" stroke="#6b24c2" stroke-width="1.51"/><path d="M1612,-90L1652,86L1771,68Z" fill="#6f22da" stroke="#6f22da" stroke-width="1.51"/><path d="M1742,966L1655,1095L1781,1184Z" fill="#861ddc" stroke="#861ddc" stroke-width="1.51"/><path d="M1616,358L1750,487L1793,335Z" fill="#6924c5" stroke="#6924c5" stroke-width="1.51"/><path d="M1771,68L1652,86L1803,240Z" fill="#6f22d5" stroke="#6f22d5" stroke-width="1.51"/><path d="M1599,265L1793,335L1803,240Z" fill="#6b23cc" stroke="#6b23cc" stroke-width="1.51"/><path d="M1652,86L1599,265L1803,240Z" fill="#6b23cf" stroke="#6b23cf" stroke-width="1.51"/><path d="M1612,-90L1771,68L1804,-84Z" fill="#7221df" stroke="#7221df" stroke-width="1.51"/><path d="M1781,-262L1606,-215L1804,-84Z" fill="#761fe7" stroke="#761fe7" stroke-width="1.51"/><path d="M1606,-215L1612,-90L1804,-84Z" fill="#7220e2" stroke="#7220e2" stroke-width="1.51"/><path d="M1638,1040L1655,1095L1742,966Z" fill="#821fd8" stroke="#821fd8" stroke-width="1.51"/><path d="M1579,1289L1748,1331L1781,1184Z" fill="#9118e6" stroke="#9118e6" stroke-width="1.51"/><path d="M1599,265L1616,358L1793,335Z" fill="#6824c8" stroke="#6824c8" stroke-width="1.51"/><path d="M1607,797L1736,851L1766,709Z" fill="#7422ca" stroke="#7422ca" stroke-width="1.51"/><path d="M1655,1095L1579,1289L1781,1184Z" fill="#8a1be0" stroke="#8a1be0" stroke-width="1.51"/><path d="M1671,656L1607,797L1766,709Z" fill="#6f24c6" stroke="#6f24c6" stroke-width="1.51"/><path d="M1736,851L1607,797L1742,966Z" fill="#7821cf" stroke="#7821cf" stroke-width="1.51"/><path d="M1607,797L1638,1040L1742,966Z" fill="#7a21d1" stroke="#7a21d1" stroke-width="1.51"/><path d="M1616,358L1672,552L1750,487Z" fill="#6525c0" stroke="#6525c0" stroke-width="1.51"/><path d="M1490,832L1524,1007L1607,797Z" fill="#7223c9" stroke="#7223c9" stroke-width="1.51"/><path d="M1607,797L1524,1007L1638,1040Z" fill="#7822cf" stroke="#7822cf" stroke-width="1.51"/><path d="M1612,-90L1528,93L1652,86Z" fill="#6b22d5" stroke="#6b22d5" stroke-width="1.51"/><path d="M1528,93L1599,265L1652,86Z" fill="#6824ce" stroke="#6824ce" stroke-width="1.51"/><path d="M1501,1173L1579,1289L1655,1095Z" fill="#861ddd" stroke="#861ddd" stroke-width="1.51"/><path d="M1513,657L1607,797L1671,656Z" fill="#6a24c1" stroke="#6a24c1" stroke-width="1.51"/><path d="M1616,358L1496,427L1672,552Z" fill="#6225bd" stroke="#6225bd" stroke-width="1.51"/><path d="M1496,427L1489,492L1672,552Z" fill="#5f26b9" stroke="#5f26b9" stroke-width="1.51"/><path d="M1513,657L1671,656L1672,552Z" fill="#6625be" stroke="#6625be" stroke-width="1.51"/><path d="M1489,492L1513,657L1672,552Z" fill="#6026b8" stroke="#6026b8" stroke-width="1.51"/><path d="M1606,-215L1532,-169L1612,-90Z" fill="#6f21e0" stroke="#6f21e0" stroke-width="1.51"/><path d="M1638,1040L1524,1007L1655,1095Z" fill="#7f20d5" stroke="#7f20d5" stroke-width="1.51"/><path d="M1524,1007L1501,1173L1655,1095Z" fill="#801fd6" stroke="#801fd6" stroke-width="1.51"/><path d="M1501,1173L1497,1236L1579,1289Z" fill="#871ddd" stroke="#871ddd" stroke-width="1.51"/><path d="M1349,-224L1532,-169L1606,-215Z" fill="#6c22df" stroke="#6c22df" stroke-width="1.51"/><path d="M1528,93L1508,269L1599,265Z" fill="#6524c9" stroke="#6524c9" stroke-width="1.51"/><path d="M1450,-85L1528,93L1612,-90Z" fill="#6923d6" stroke="#6923d6" stroke-width="1.51"/><path d="M1152,1288L1086,1324L1378,1277Z" fill="#7e20d4" stroke="#7e20d4" stroke-width="1.51"/><path d="M1513,657L1490,832L1607,797Z" fill="#6c24c3" stroke="#6c24c3" stroke-width="1.51"/><path d="M1599,265L1508,269L1616,358Z" fill="#6524c5" stroke="#6524c5" stroke-width="1.51"/><path d="M1508,269L1496,427L1616,358Z" fill="#6225c1" stroke="#6225c1" stroke-width="1.51"/><path d="M1532,-169L1450,-85L1612,-90Z" fill="#6b22db" stroke="#6b22db" stroke-width="1.51"/><path d="M1047,-250L1210,-204L1349,-224Z" fill="#5f24d4" stroke="#5f24d4" stroke-width="1.51"/><path d="M1497,1236L1378,1277L1579,1289Z" fill="#871dde" stroke="#871dde" stroke-width="1.51"/><path d="M619,1311L453,1335L859,1333Z" fill="#7a20d9" stroke="#7a20d9" stroke-width="1.51"/><path d="M1383,379L1496,427L1508,269Z" fill="#5f25bd" stroke="#5f25bd" stroke-width="1.51"/><path d="M1489,492L1355,584L1513,657Z" fill="#5d26b5" stroke="#5d26b5" stroke-width="1.51"/><path d="M1342,636L1490,832L1513,657Z" fill="#6425bc" stroke="#6425bc" stroke-width="1.51"/><path d="M1490,832L1365,870L1524,1007Z" fill="#7123c8" stroke="#7123c8" stroke-width="1.51"/><path d="M1365,870L1329,961L1524,1007Z" fill="#7123c8" stroke="#7123c8" stroke-width="1.51"/><path d="M1319,1133L1501,1173L1524,1007Z" fill="#7c21d3" stroke="#7c21d3" stroke-width="1.51"/><path d="M1329,961L1319,1133L1524,1007Z" fill="#7622cc" stroke="#7622cc" stroke-width="1.51"/><path d="M1372,80L1508,269L1528,93Z" fill="#6325ca" stroke="#6325ca" stroke-width="1.51"/><path d="M1450,-85L1372,80L1528,93Z" fill="#6524d0" stroke="#6524d0" stroke-width="1.51"/><path d="M1349,-224L1450,-85L1532,-169Z" fill="#6923da" stroke="#6923da" stroke-width="1.51"/><path d="M1389,-79L1372,80L1450,-85Z" fill="#6424d1" stroke="#6424d1" stroke-width="1.51"/><path d="M1342,636L1365,870L1490,832Z" fill="#6725be" stroke="#6725be" stroke-width="1.51"/><path d="M1372,80L1280,271L1508,269Z" fill="#5e25c3" stroke="#5e25c3" stroke-width="1.51"/><path d="M1355,584L1342,636L1513,657Z" fill="#5e26b5" stroke="#5e26b5" stroke-width="1.51"/><path d="M1280,271L1383,379L1508,269Z" fill="#5d26bd" stroke="#5d26bd" stroke-width="1.51"/><path d="M1378,1277L1497,1236L1501,1173Z" fill="#841eda" stroke="#841eda" stroke-width="1.51"/><path d="M1319,1133L1378,1277L1501,1173Z" fill="#7f1fd6" stroke="#7f1fd6" stroke-width="1.51"/><path d="M1349,-224L1389,-79L1450,-85Z" fill="#6623d7" stroke="#6623d7" stroke-width="1.51"/><path d="M1383,379L1489,492L1496,427Z" fill="#5c26b9" stroke="#5c26b9" stroke-width="1.51"/><path d="M1383,379L1355,584L1489,492Z" fill="#5926b4" stroke="#5926b4" stroke-width="1.51"/><path d="M1146,124L1209,257L1280,271Z" fill="#5726bb" stroke="#5726bb" stroke-width="1.51"/><path d="M1198,739L1185,794L1365,870Z" fill="#6226b9" stroke="#6226b9" stroke-width="1.51"/><path d="M1342,636L1198,739L1365,870Z" fill="#6126b8" stroke="#6126b8" stroke-width="1.51"/><path d="M1129,-101L1146,124L1372,80Z" fill="#5b25c6" stroke="#5b25c6" stroke-width="1.51"/><path d="M1146,124L1280,271L1372,80Z" fill="#5a26c1" stroke="#5a26c1" stroke-width="1.51"/><path d="M1175,526L1355,584L1383,379Z" fill="#5526af" stroke="#5526af" stroke-width="1.51"/><path d="M1207,356L1175,526L1383,379Z" fill="#5427b2" stroke="#5427b2" stroke-width="1.51"/><path d="M1349,-224L1210,-204L1389,-79Z" fill="#6323d6" stroke="#6323d6" stroke-width="1.51"/><path d="M1129,-101L1372,80L1389,-79Z" fill="#5f25cd" stroke="#5f25cd" stroke-width="1.51"/><path d="M1210,-204L1129,-101L1389,-79Z" fill="#5f24d1" stroke="#5f24d1" stroke-width="1.51"/><path d="M1319,1133L1152,1288L1378,1277Z" fill="#7d21d4" stroke="#7d21d4" stroke-width="1.51"/><path d="M1280,271L1207,356L1383,379Z" fill="#5726b8" stroke="#5726b8" stroke-width="1.51"/><path d="M1220,1105L1319,1133L1329,961Z" fill="#7322ca" stroke="#7322ca" stroke-width="1.51"/><path d="M1232,953L1329,961L1365,870Z" fill="#6c24c3" stroke="#6c24c3" stroke-width="1.51"/><path d="M1185,794L1232,953L1365,870Z" fill="#6725be" stroke="#6725be" stroke-width="1.51"/><path d="M1220,1105L1152,1288L1319,1133Z" fill="#7822ce" stroke="#7822ce" stroke-width="1.51"/><path d="M1232,953L1220,1105L1329,961Z" fill="#6f24c6" stroke="#6f24c6" stroke-width="1.51"/><path d="M1175,526L1342,636L1355,584Z" fill="#5626af" stroke="#5626af" stroke-width="1.51"/><path d="M1175,526L1198,739L1342,636Z" fill="#5727af" stroke="#5727af" stroke-width="1.51"/><path d="M1129,-101L1072,-12L1146,124Z" fill="#5626c4" stroke="#5626c4" stroke-width="1.51"/><path d="M1209,257L1207,356L1280,271Z" fill="#5626b8" stroke="#5626b8" stroke-width="1.51"/><path d="M1175,526L983,682L1198,739Z" fill="#5327ac" stroke="#5327ac" stroke-width="1.51"/><path d="M990,1154L1152,1288L1220,1105Z" fill="#7423ca" stroke="#7423ca" stroke-width="1.51"/><path d="M1185,794L991,889L1232,953Z" fill="#6225b9" stroke="#6225b9" stroke-width="1.51"/><path d="M986,1045L1220,1105L1232,953Z" fill="#6c24c3" stroke="#6c24c3" stroke-width="1.51"/><path d="M991,889L986,1045L1232,953Z" fill="#6425bc" stroke="#6425bc" stroke-width="1.51"/><path d="M1072,-12L1055,39L1146,124Z" fill="#5426c0" stroke="#5426c0" stroke-width="1.51"/><path d="M1024,499L1175,526L1207,356Z" fill="#4e27ab" stroke="#4e27ab" stroke-width="1.51"/><path d="M1016,336L1024,499L1207,356Z" fill="#4e27ac" stroke="#4e27ac" stroke-width="1.51"/><path d="M1021,264L1207,356L1209,257Z" fill="#5226b5" stroke="#5226b5" stroke-width="1.51"/><path d="M986,1045L990,1154L1220,1105Z" fill="#6c24c4" stroke="#6c24c4" stroke-width="1.51"/><path d="M609,-222L905,-183L1047,-250Z" fill="#5525cf" stroke="#5525cf" stroke-width="1.51"/><path d="M1021,264L1016,336L1207,356Z" fill="#4f27b1" stroke="#4f27b1" stroke-width="1.51"/><path d="M1146,124L1021,264L1209,257Z" fill="#5327b8" stroke="#5327b8" stroke-width="1.51"/><path d="M1047,-250L1129,-101L1210,-204Z" fill="#5b25cf" stroke="#5b25cf" stroke-width="1.51"/><path d="M1024,499L983,682L1175,526Z" fill="#4c27a5" stroke="#4c27a5" stroke-width="1.51"/><path d="M983,682L1185,794L1198,739Z" fill="#5927b1" stroke="#5927b1" stroke-width="1.51"/><path d="M983,682L991,889L1185,794Z" fill="#5926b1" stroke="#5926b1" stroke-width="1.51"/><path d="M990,1154L1086,1324L1152,1288Z" fill="#7622cd" stroke="#7622cd" stroke-width="1.51"/><path d="M1055,39L1021,264L1146,124Z" fill="#5227bb" stroke="#5227bb" stroke-width="1.51"/><path d="M905,108L1021,264L1055,39Z" fill="#4f26b8" stroke="#4f26b8" stroke-width="1.51"/><path d="M905,-183L1072,-12L1129,-101Z" fill="#5526c7" stroke="#5526c7" stroke-width="1.51"/><path d="M1047,-250L905,-183L1129,-101Z" fill="#5625cb" stroke="#5625cb" stroke-width="1.51"/><path d="M905,-183L867,-24L1072,-12Z" fill="#5126c3" stroke="#5126c3" stroke-width="1.51"/><path d="M990,1154L859,1333L1086,1324Z" fill="#7323ca" stroke="#7323ca" stroke-width="1.51"/><path d="M609,-222L734,-164L905,-183Z" fill="#5625d1" stroke="#5625d1" stroke-width="1.51"/><path d="M894,556L983,682L1024,499Z" fill="#4827a2" stroke="#4827a2" stroke-width="1.51"/><path d="M867,-24L1055,39L1072,-12Z" fill="#5126c0" stroke="#5126c0" stroke-width="1.51"/><path d="M1016,336L841,423L1024,499Z" fill="#4827a6" stroke="#4827a6" stroke-width="1.51"/><path d="M867,-24L905,108L1055,39Z" fill="#4f27bd" stroke="#4f27bd" stroke-width="1.51"/><path d="M243,1332L173,1345L453,1335Z" fill="#811de8" stroke="#811de8" stroke-width="1.51"/><path d="M894,556L913,664L983,682Z" fill="#4c27a6" stroke="#4c27a6" stroke-width="1.51"/><path d="M983,682L829,792L991,889Z" fill="#5526af" stroke="#5526af" stroke-width="1.51"/><path d="M907,1021L986,1045L991,889Z" fill="#6126b9" stroke="#6126b9" stroke-width="1.51"/><path d="M913,664L829,792L983,682Z" fill="#5027ab" stroke="#5027ab" stroke-width="1.51"/><path d="M986,1045L924,1121L990,1154Z" fill="#6825c0" stroke="#6825c0" stroke-width="1.51"/><path d="M842,208L1016,336L1021,264Z" fill="#4b27af" stroke="#4b27af" stroke-width="1.51"/><path d="M905,108L842,208L1021,264Z" fill="#4d27b5" stroke="#4d27b5" stroke-width="1.51"/><path d="M841,423L894,556L1024,499Z" fill="#4627a4" stroke="#4627a4" stroke-width="1.51"/><path d="M924,1121L859,1333L990,1154Z" fill="#6e23c7" stroke="#6e23c7" stroke-width="1.51"/><path d="M842,208L841,423L1016,336Z" fill="#4b27ae" stroke="#4b27ae" stroke-width="1.51"/><path d="M829,792L907,1021L991,889Z" fill="#5c26b6" stroke="#5c26b6" stroke-width="1.51"/><path d="M907,1021L924,1121L986,1045Z" fill="#6625be" stroke="#6625be" stroke-width="1.51"/><path d="M867,-24L784,40L905,108Z" fill="#5026c0" stroke="#5026c0" stroke-width="1.51"/><path d="M734,-164L867,-24L905,-183Z" fill="#5426ca" stroke="#5426ca" stroke-width="1.51"/><path d="M829,792L715,895L907,1021Z" fill="#5e26ba" stroke="#5e26ba" stroke-width="1.51"/><path d="M715,895L778,1027L907,1021Z" fill="#6325bf" stroke="#6325bf" stroke-width="1.51"/><path d="M778,1027L783,1131L907,1021Z" fill="#6825c2" stroke="#6825c2" stroke-width="1.51"/><path d="M764,745L829,792L913,664Z" fill="#5327af" stroke="#5327af" stroke-width="1.51"/><path d="M907,1021L783,1131L924,1121Z" fill="#6824c3" stroke="#6824c3" stroke-width="1.51"/><path d="M783,1131L859,1333L924,1121Z" fill="#6f23c9" stroke="#6f23c9" stroke-width="1.51"/><path d="M719,243L841,423L842,208Z" fill="#4c27b4" stroke="#4c27b4" stroke-width="1.51"/><path d="M894,556L764,745L913,664Z" fill="#4e27aa" stroke="#4e27aa" stroke-width="1.51"/><path d="M719,243L693,357L841,423Z" fill="#4c27b3" stroke="#4c27b3" stroke-width="1.51"/><path d="M685,1281L619,1311L859,1333Z" fill="#7821d4" stroke="#7821d4" stroke-width="1.51"/><path d="M691,533L764,745L894,556Z" fill="#4c27aa" stroke="#4c27aa" stroke-width="1.51"/><path d="M784,40L842,208L905,108Z" fill="#4f26bc" stroke="#4f26bc" stroke-width="1.51"/><path d="M783,1131L685,1281L859,1333Z" fill="#7422cf" stroke="#7422cf" stroke-width="1.51"/><path d="M841,423L691,533L894,556Z" fill="#4827a8" stroke="#4827a8" stroke-width="1.51"/><path d="M700,-17L784,40L867,-24Z" fill="#5226c5" stroke="#5226c5" stroke-width="1.51"/><path d="M734,-164L700,-17L867,-24Z" fill="#5426ca" stroke="#5426ca" stroke-width="1.51"/><path d="M784,40L719,243L842,208Z" fill="#4f27bc" stroke="#4f27bc" stroke-width="1.51"/><path d="M693,357L691,533L841,423Z" fill="#4a27ae" stroke="#4a27ae" stroke-width="1.51"/><path d="M764,745L715,895L829,792Z" fill="#5826b6" stroke="#5826b6" stroke-width="1.51"/><path d="M691,533L532,669L764,745Z" fill="#5027b1" stroke="#5027b1" stroke-width="1.51"/><path d="M778,1027L603,1151L783,1131Z" fill="#6b24c9" stroke="#6b24c9" stroke-width="1.51"/><path d="M603,1151L685,1281L783,1131Z" fill="#7123cf" stroke="#7123cf" stroke-width="1.51"/><path d="M597,67L719,243L784,40Z" fill="#5126c2" stroke="#5126c2" stroke-width="1.51"/><path d="M700,-17L597,67L784,40Z" fill="#5326c7" stroke="#5326c7" stroke-width="1.51"/><path d="M715,895L555,982L778,1027Z" fill="#6425c2" stroke="#6425c2" stroke-width="1.51"/><path d="M555,982L603,1151L778,1027Z" fill="#6924c9" stroke="#6924c9" stroke-width="1.51"/><path d="M554,862L715,895L764,745Z" fill="#5b26bb" stroke="#5b26bb" stroke-width="1.51"/><path d="M532,669L554,862L764,745Z" fill="#5727b9" stroke="#5727b9" stroke-width="1.51"/><path d="M541,575L532,669L691,533Z" fill="#4e27b1" stroke="#4e27b1" stroke-width="1.51"/><path d="M565,375L691,533L693,357Z" fill="#4c27b2" stroke="#4c27b2" stroke-width="1.51"/><path d="M617,266L693,357L719,243Z" fill="#4e27b9" stroke="#4e27b9" stroke-width="1.51"/><path d="M597,67L617,266L719,243Z" fill="#5127bf" stroke="#5127bf" stroke-width="1.51"/><path d="M574,-52L700,-17L734,-164Z" fill="#5526ce" stroke="#5526ce" stroke-width="1.51"/><path d="M609,-222L574,-52L734,-164Z" fill="#5725d3" stroke="#5725d3" stroke-width="1.51"/><path d="M-158,-263L79,-194L314,-224Z" fill="#6022ee" stroke="#6022ee" stroke-width="1.51"/><path d="M554,862L555,982L715,895Z" fill="#6125c2" stroke="#6125c2" stroke-width="1.51"/><path d="M603,1151L619,1311L685,1281Z" fill="#7621d5" stroke="#7621d5" stroke-width="1.51"/><path d="M565,375L541,575L691,533Z" fill="#4b27b0" stroke="#4b27b0" stroke-width="1.51"/><path d="M574,-52L597,67L700,-17Z" fill="#5426cb" stroke="#5426cb" stroke-width="1.51"/><path d="M617,266L565,375L693,357Z" fill="#4e27b8" stroke="#4e27b8" stroke-width="1.51"/><path d="M314,-224L451,-168L609,-222Z" fill="#5a24de" stroke="#5a24de" stroke-width="1.51"/><path d="M532,669L473,785L554,862Z" fill="#5a25be" stroke="#5a25be" stroke-width="1.51"/><path d="M472,39L469,247L597,67Z" fill="#5326c9" stroke="#5326c9" stroke-width="1.51"/><path d="M555,982L390,1108L603,1151Z" fill="#6d23cf" stroke="#6d23cf" stroke-width="1.51"/><path d="M451,-168L574,-52L609,-222Z" fill="#5825d7" stroke="#5825d7" stroke-width="1.51"/><path d="M597,67L469,247L617,266Z" fill="#5126c3" stroke="#5126c3" stroke-width="1.51"/><path d="M469,247L565,375L617,266Z" fill="#5026bd" stroke="#5026bd" stroke-width="1.51"/><path d="M603,1151L453,1335L619,1311Z" fill="#7820d9" stroke="#7820d9" stroke-width="1.51"/><path d="M574,-52L472,39L597,67Z" fill="#5525cd" stroke="#5525cd" stroke-width="1.51"/><path d="M427,567L541,575L565,375Z" fill="#4c27b3" stroke="#4c27b3" stroke-width="1.51"/><path d="M390,1108L453,1335L603,1151Z" fill="#7521d8" stroke="#7521d8" stroke-width="1.51"/><path d="M426,365L427,567L565,375Z" fill="#4e27b9" stroke="#4e27b9" stroke-width="1.51"/><path d="M451,-168L477,-42L574,-52Z" fill="#5725d5" stroke="#5725d5" stroke-width="1.51"/><path d="M477,-42L472,39L574,-52Z" fill="#5625d1" stroke="#5625d1" stroke-width="1.51"/><path d="M386,1032L390,1108L555,982Z" fill="#6c23d0" stroke="#6c23d0" stroke-width="1.51"/><path d="M469,247L426,365L565,375Z" fill="#4f27be" stroke="#4f27be" stroke-width="1.51"/><path d="M554,862L386,1032L555,982Z" fill="#6524c9" stroke="#6524c9" stroke-width="1.51"/><path d="M425,704L473,785L532,669Z" fill="#5726bc" stroke="#5726bc" stroke-width="1.51"/><path d="M473,785L327,840L554,862Z" fill="#5f25c3" stroke="#5f25c3" stroke-width="1.51"/><path d="M327,840L386,1032L554,862Z" fill="#6425ca" stroke="#6425ca" stroke-width="1.51"/><path d="M427,567L532,669L541,575Z" fill="#4f27b5" stroke="#4f27b5" stroke-width="1.51"/><path d="M427,567L425,704L532,669Z" fill="#5227b9" stroke="#5227b9" stroke-width="1.51"/><path d="M426,365L313,421L427,567Z" fill="#4f27bb" stroke="#4f27bb" stroke-width="1.51"/><path d="M390,1108L263,1192L453,1335Z" fill="#7820dd" stroke="#7820dd" stroke-width="1.51"/><path d="M308,76L269,285L469,247Z" fill="#5426ca" stroke="#5426ca" stroke-width="1.51"/><path d="M308,76L469,247L472,39Z" fill="#5526cc" stroke="#5526cc" stroke-width="1.51"/><path d="M451,-168L256,-34L477,-42Z" fill="#5925d9" stroke="#5925d9" stroke-width="1.51"/><path d="M308,76L472,39L477,-42Z" fill="#5725d2" stroke="#5725d2" stroke-width="1.51"/><path d="M256,-34L308,76L477,-42Z" fill="#5725d6" stroke="#5725d6" stroke-width="1.51"/><path d="M269,285L426,365L469,247Z" fill="#5127c3" stroke="#5127c3" stroke-width="1.51"/><path d="M425,704L327,840L473,785Z" fill="#5c25c2" stroke="#5c25c2" stroke-width="1.51"/><path d="M279,656L425,704L427,567Z" fill="#5426bc" stroke="#5426bc" stroke-width="1.51"/><path d="M314,-224L256,-34L451,-168Z" fill="#5b24df" stroke="#5b24df" stroke-width="1.51"/><path d="M263,1192L243,1332L453,1335Z" fill="#7d1ee4" stroke="#7d1ee4" stroke-width="1.51"/><path d="M327,840L282,1036L386,1032Z" fill="#6923d1" stroke="#6923d1" stroke-width="1.51"/><path d="M279,656L327,840L425,704Z" fill="#5a25c3" stroke="#5a25c3" stroke-width="1.51"/><path d="M269,285L313,421L426,365Z" fill="#5126c2" stroke="#5126c2" stroke-width="1.51"/><path d="M313,421L261,527L427,567Z" fill="#4e26ba" stroke="#4e26ba" stroke-width="1.51"/><path d="M261,527L279,656L427,567Z" fill="#5026bb" stroke="#5026bb" stroke-width="1.51"/><path d="M386,1032L282,1036L390,1108Z" fill="#6e22d5" stroke="#6e22d5" stroke-width="1.51"/><path d="M282,1036L263,1192L390,1108Z" fill="#7221d9" stroke="#7221d9" stroke-width="1.51"/><path d="M138,143L269,285L308,76Z" fill="#5626d1" stroke="#5626d1" stroke-width="1.51"/><path d="M269,285L171,396L313,421Z" fill="#5226c5" stroke="#5226c5" stroke-width="1.51"/><path d="M146,-62L256,-34L314,-224Z" fill="#5b24e1" stroke="#5b24e1" stroke-width="1.51"/><path d="M279,656L155,785L327,840Z" fill="#5d25c8" stroke="#5d25c8" stroke-width="1.51"/><path d="M164,996L282,1036L327,840Z" fill="#6923d3" stroke="#6923d3" stroke-width="1.51"/><path d="M155,785L164,996L327,840Z" fill="#6524cf" stroke="#6524cf" stroke-width="1.51"/><path d="M148,1162L263,1192L282,1036Z" fill="#7521de" stroke="#7521de" stroke-width="1.51"/><path d="M171,396L261,527L313,421Z" fill="#5126c0" stroke="#5126c0" stroke-width="1.51"/><path d="M79,-194L146,-62L314,-224Z" fill="#5d23e6" stroke="#5d23e6" stroke-width="1.51"/><path d="M138,143L118,233L269,285Z" fill="#5625d0" stroke="#5625d0" stroke-width="1.51"/><path d="M256,-34L138,143L308,76Z" fill="#5825d7" stroke="#5825d7" stroke-width="1.51"/><path d="M-158,-263L-29,-196L79,-194Z" fill="#6122f2" stroke="#6122f2" stroke-width="1.51"/><path d="M146,-62L138,143L256,-34Z" fill="#5924dc" stroke="#5924dc" stroke-width="1.51"/><path d="M173,1345L243,1332L263,1192Z" fill="#7f1de7" stroke="#7f1de7" stroke-width="1.51"/><path d="M148,1162L173,1345L263,1192Z" fill="#7c1ee5" stroke="#7c1ee5" stroke-width="1.51"/><path d="M105,731L155,785L279,656Z" fill="#5c25c8" stroke="#5c25c8" stroke-width="1.51"/><path d="M261,527L137,535L279,656Z" fill="#5126be" stroke="#5126be" stroke-width="1.51"/><path d="M164,996L148,1162L282,1036Z" fill="#7121db" stroke="#7121db" stroke-width="1.51"/><path d="M137,535L105,731L279,656Z" fill="#5626c4" stroke="#5626c4" stroke-width="1.51"/><path d="M171,396L137,535L261,527Z" fill="#5126c1" stroke="#5126c1" stroke-width="1.51"/><path d="M118,233L171,396L269,285Z" fill="#5426cb" stroke="#5426cb" stroke-width="1.51"/><path d="M41,642L105,731L137,535Z" fill="#5726c7" stroke="#5726c7" stroke-width="1.51"/><path d="M29,49L138,143L146,-62Z" fill="#5a24dd" stroke="#5a24dd" stroke-width="1.51"/><path d="M-65,1089L148,1162L164,996Z" fill="#7320e2" stroke="#7320e2" stroke-width="1.51"/><path d="M155,785L-33,894L164,996Z" fill="#6723d5" stroke="#6723d5" stroke-width="1.51"/><path d="M118,233L-8,267L171,396Z" fill="#5525cf" stroke="#5525cf" stroke-width="1.51"/><path d="M-8,267L-37,435L171,396Z" fill="#5526cd" stroke="#5526cd" stroke-width="1.51"/><path d="M-37,435L137,535L171,396Z" fill="#5226c6" stroke="#5226c6" stroke-width="1.51"/><path d="M148,1162L20,1327L173,1345Z" fill="#801deb" stroke="#801deb" stroke-width="1.51"/><path d="M-33,894L-70,938L164,996Z" fill="#6c22db" stroke="#6c22db" stroke-width="1.51"/><path d="M-70,938L-65,1089L164,996Z" fill="#7021e0" stroke="#7021e0" stroke-width="1.51"/><path d="M79,-194L-14,-111L146,-62Z" fill="#5e23e9" stroke="#5e23e9" stroke-width="1.51"/><path d="M105,731L-33,894L155,785Z" fill="#6324d1" stroke="#6324d1" stroke-width="1.51"/><path d="M-37,435L-6,567L137,535Z" fill="#5226c5" stroke="#5226c5" stroke-width="1.51"/><path d="M-65,1089L20,1327L148,1162Z" fill="#7c1eea" stroke="#7c1eea" stroke-width="1.51"/><path d="M-6,567L41,642L137,535Z" fill="#5426c5" stroke="#5426c5" stroke-width="1.51"/><path d="M-14,-111L29,49L146,-62Z" fill="#5d24e4" stroke="#5d24e4" stroke-width="1.51"/><path d="M-8,267L118,233L138,143Z" fill="#5725d5" stroke="#5725d5" stroke-width="1.51"/><path d="M29,49L-8,267L138,143Z" fill="#5925d9" stroke="#5925d9" stroke-width="1.51"/><path d="M41,642L-33,894L105,731Z" fill="#6025d0" stroke="#6025d0" stroke-width="1.51"/><path d="M-65,1089L-145,1158L20,1327Z" fill="#7d1dee" stroke="#7d1dee" stroke-width="1.51"/><path d="M-139,668L-33,894L41,642Z" fill="#5f24d2" stroke="#5f24d2" stroke-width="1.51"/><path d="M-29,-196L-14,-111L79,-194Z" fill="#5f22ed" stroke="#5f22ed" stroke-width="1.51"/><path d="M-70,938L-111,981L-65,1089Z" fill="#7220e3" stroke="#7220e3" stroke-width="1.51"/><path d="M-197,89L-125,279L-8,267Z" fill="#5a24dc" stroke="#5a24dc" stroke-width="1.51"/><path d="M-145,1158L-193,1259L20,1327Z" fill="#811bf3" stroke="#811bf3" stroke-width="1.51"/><path d="M-14,-111L-147,-85L29,49Z" fill="#5e23e9" stroke="#5e23e9" stroke-width="1.51"/><path d="M-197,89L-8,267L29,49Z" fill="#5b24df" stroke="#5b24df" stroke-width="1.51"/><path d="M-6,567L-139,668L41,642Z" fill="#5825cb" stroke="#5825cb" stroke-width="1.51"/><path d="M-139,668L-205,843L-33,894Z" fill="#6523d9" stroke="#6523d9" stroke-width="1.51"/><path d="M-125,279L-37,435L-8,267Z" fill="#5725d4" stroke="#5725d4" stroke-width="1.51"/><path d="M-147,-85L-197,89L29,49Z" fill="#5d23e7" stroke="#5d23e7" stroke-width="1.51"/><path d="M-122,566L-139,668L-6,567Z" fill="#5725cc" stroke="#5725cc" stroke-width="1.51"/><path d="M-125,279L-174,370L-37,435Z" fill="#5725d4" stroke="#5725d4" stroke-width="1.51"/><path d="M-37,435L-122,566L-6,567Z" fill="#5326c8" stroke="#5326c8" stroke-width="1.51"/><path d="M-29,-196L-147,-85L-14,-111Z" fill="#6022ef" stroke="#6022ef" stroke-width="1.51"/><path d="M-205,843L-70,938L-33,894Z" fill="#6a22dd" stroke="#6a22dd" stroke-width="1.51"/><path d="M-158,-263L-147,-85L-29,-196Z" fill="#6221f3" stroke="#6221f3" stroke-width="1.51"/><path d="M-174,370L-122,566L-37,435Z" fill="#5525ce" stroke="#5525ce" stroke-width="1.51"/><path d="M-205,843L-111,981L-70,938Z" fill="#6d21e0" stroke="#6d21e0" stroke-width="1.51"/><path d="M-111,981L-145,1158L-65,1089Z" fill="#761fe8" stroke="#761fe8" stroke-width="1.51"/><path d="M-205,843L-145,1158L-111,981Z" fill="#7220e5" stroke="#7220e5" stroke-width="1.51"/><path d="M-197,89L-174,370L-125,279Z" fill="#5a24dd" stroke="#5a24dd" stroke-width="1.51"/><path d="M-174,370L-139,668L-122,566Z" fill="#5425cb" stroke="#5425cb" stroke-width="1.51"/><path d="M-205,843L-193,1259L-145,1158Z" fill="#781eec" stroke="#781eec" stroke-width="1.51"/><path d="M-174,370L-205,843L-139,668Z" fill="#5a25d1" stroke="#5a25d1" stroke-width="1.51"/><path d="M-158,-263L-197,89L-147,-85Z" fill="#6022f0" stroke="#6022f0" stroke-width="1.51"/><path d="M-197,89L-205,843L-174,370Z" fill="#5725d3" stroke="#5725d3" stroke-width="1.51"/></svg>